<svg xmlns="http://www.w3.org/2000/svg" width="92" height="19" viewBox="0 0 92 19" fill="none"><path d="M7.42326 0.567281C5.726 0.906081 4.16813 1.71591 2.91362 2.91411C2.09369 3.69914 1.58533 4.37675 1.10158 5.31879C0.355437 6.77317 0.0766602 7.94655 0.0766602 9.60753C0.0766602 11.2685 0.355437 12.442 1.10158 13.8963C1.58533 14.8383 2.09369 15.5159 2.91362 16.301C4.62729 17.9454 6.72632 18.78 9.13692 18.78C10.744 18.78 11.9493 18.4991 13.2776 17.8297C13.9417 17.4909 14.8354 16.9125 14.8354 16.8133C14.8354 16.7803 14.3353 16.2514 13.7285 15.6399L12.6216 14.5244L12.1296 14.797C11.2114 15.3094 10.5472 15.4911 9.45666 15.5325C8.62858 15.5656 8.35801 15.549 7.77585 15.4003C5.09465 14.7226 3.2744 12.384 3.2744 9.60753C3.2744 6.28562 5.88179 3.65783 9.17794 3.65783C13.5154 3.65783 16.3441 8.13663 14.5485 12.1527L14.3189 12.6733L15.4176 13.7889C16.0162 14.4004 16.5491 14.8961 16.5983 14.8961C16.7786 14.8961 17.5166 13.5079 17.8364 12.5576C18.1479 11.6404 18.2792 10.7479 18.2792 9.60753C18.2792 7.94655 18.0004 6.77317 17.2543 5.31879C16.7705 4.37675 16.2622 3.69914 15.4422 2.91411C14.1713 1.69112 12.6135 0.889558 10.8752 0.559017C10.0716 0.402011 8.20221 0.410274 7.42326 0.567281Z" fill="white"></path><path d="M40.0059 9.06976V15.1434H41.1127H42.2197V9.06976V2.99609H41.1127H40.0059V9.06976Z" fill="white"></path><path d="M74.23 3.12035C71.1716 3.78969 68.9906 6.80586 69.3595 9.8303C69.5481 11.3343 70.0811 12.4168 71.1552 13.491C72.1801 14.5074 73.0739 14.995 74.4432 15.2759C75.9437 15.5817 77.8131 15.185 79.0597 14.3009L79.2889 14.1356L79.7399 14.5405C80.5679 15.2594 80.4698 15.2512 80.9781 14.6892C81.7895 13.7885 81.7812 13.8711 81.1583 13.301L80.6169 12.8135L80.9698 12.1854C82.3634 9.72292 81.9622 6.83065 79.9367 4.81437C79.0431 3.91364 78.0507 3.37651 76.8373 3.12035C76.1571 2.9716 74.8941 2.9716 74.23 3.12035ZM76.6488 5.21928C78.289 5.73161 79.5264 7.45042 79.5264 9.21052C79.5264 9.71463 79.3296 10.5079 79.0921 10.979L78.9119 11.326L78.0997 10.6153L77.2883 9.90471L76.9278 10.3096C76.7227 10.541 76.452 10.855 76.3208 11.0285L76.0832 11.326L76.8705 12.0119L77.6487 12.6977L77.28 12.8878C76.78 13.144 76.0583 13.3258 75.5501 13.3258C73.4428 13.3258 71.5734 11.3426 71.5734 9.11963C71.5734 8.63209 71.762 7.87186 72.0244 7.33473C72.2703 6.83065 72.9345 6.05389 73.4346 5.70682C74.3365 5.08706 75.6074 4.897 76.6488 5.21928Z" fill="white"></path><path d="M21.1477 4.19407V5.22701H23.0336H24.9194V10.1851V15.1432H26.0673H27.2152V10.1851V5.22701H29.101H30.9869V4.19407V3.16113H26.0673H21.1477V4.19407Z" fill="white"></path><path d="M83.462 9.15214V15.1432H87.6028H91.7436V14.1516V13.16H88.7098H85.6761V8.16057V3.16113H84.5691H83.462V9.15214Z" fill="white"></path><path d="M63.9479 4.89675V6.13627H63.2919H62.636V7.04526V7.95427H63.2919H63.9397L63.9643 10.7803L63.9888 13.6148L64.2102 14.0279C64.6858 14.9369 65.3992 15.3501 66.4897 15.3501C67.121 15.3501 67.244 15.3253 67.7442 15.0774C68.0558 14.9204 68.3263 14.7468 68.3509 14.6807C68.3755 14.6146 68.3099 14.3667 68.2115 14.1271C68.1049 13.8957 67.9737 13.5817 67.9163 13.433L67.8098 13.1768L67.4982 13.3338C67.1374 13.5239 66.8095 13.5321 66.4979 13.3751C66.0715 13.1437 66.0469 12.995 66.0141 10.3672L65.9895 7.95427H67.0144H68.0475V7.04526V6.13627H67.0227H65.9977V4.89675V3.65723H64.9728H63.9479V4.89675Z" fill="white"></path><path d="M7.95459 6.04506C6.97067 6.41691 6.25733 7.06973 5.78996 8.02833C5.53578 8.55714 5.52759 8.61498 5.52759 9.60663C5.52759 10.6148 5.53578 10.6561 5.80636 11.218C6.17534 11.9783 6.82308 12.631 7.57739 13.0029C8.13497 13.2756 8.176 13.2839 9.17631 13.2839C10.1766 13.2839 10.2176 13.2756 10.7751 13.0029C11.5295 12.631 12.1772 11.9783 12.5462 11.218C12.8168 10.6561 12.825 10.6148 12.825 9.60663C12.825 8.59849 12.8168 8.55714 12.5462 7.99527C12.1772 7.235 11.5295 6.58218 10.7751 6.21859C10.2422 5.95416 10.1274 5.92937 9.2993 5.91284C8.56134 5.88805 8.31535 5.91284 7.95459 6.04506Z" fill="white"></path><path d="M34.2256 5.94659C33.7172 5.98791 32.9547 6.12839 32.5037 6.27713C32.1512 6.38456 31.1755 6.7812 31.077 6.85557C31.036 6.88037 31.733 8.45042 31.7822 8.45042C31.7986 8.45042 31.9461 8.3843 32.1184 8.2934C33.4303 7.62407 35.0373 7.60758 35.7752 8.26863C36.0131 8.48348 36.3164 9.19416 36.3164 9.55774C36.3164 9.847 36.3 9.87177 36.1361 9.82214C34.9635 9.49162 33.6107 9.40072 32.7907 9.59908C31.7822 9.847 30.9212 10.508 30.5195 11.3344C30.3227 11.731 30.2899 11.8963 30.2899 12.4995C30.2899 13.0863 30.3227 13.2763 30.5031 13.6564C30.9295 14.5489 31.7412 15.1273 32.8399 15.3174C33.9222 15.5075 34.9881 15.2678 35.8573 14.6398L36.3164 14.3093V14.7224V15.1439H37.3824H38.4482V12.1194C38.4482 8.9049 38.4155 8.52482 38.0218 7.75631C37.7923 7.3018 37.079 6.60767 36.5952 6.35977C35.9803 6.05402 35.0045 5.88048 34.2256 5.94659ZM35.2095 11.0948C35.5293 11.1443 35.9064 11.2187 36.054 11.2683C36.3164 11.3509 36.3164 11.3592 36.3164 11.8881C36.3164 12.4995 36.2016 12.7805 35.7917 13.1358C34.8733 13.9539 33.1351 13.9209 32.5693 13.078C32.2414 12.5987 32.3397 11.8963 32.7907 11.5245C33.3647 11.0534 34.0452 10.9295 35.2095 11.0948Z" fill="white"></path><path d="M47.4264 5.97074C46.4178 6.08643 45.5077 6.52439 44.8026 7.24332C44.1795 7.87136 43.8187 8.49935 43.6137 9.3257C42.9167 12.0774 44.4418 14.6722 47.1148 15.2754C48.5333 15.5895 50.4601 15.1432 51.4932 14.2507L51.8294 13.9615L51.1899 13.317L50.5585 12.6724L50.3453 12.8212C50.0092 13.0608 49.345 13.3748 48.9269 13.4905C48.4267 13.6227 47.4264 13.5649 47.0492 13.3748C46.3769 13.0526 45.7947 12.3171 45.6144 11.5651L45.5651 11.342H49.0171H52.469L52.4362 11.028C52.4116 10.8627 52.3706 10.4661 52.346 10.1603C52.2148 8.59025 51.2718 6.98715 50.1239 6.40044C49.4024 6.02858 48.3611 5.86331 47.4264 5.97074ZM48.7875 7.83002C49.4844 8.07793 49.9681 8.63159 50.2224 9.48272L50.329 9.85458H47.9593C46.6475 9.85458 45.5816 9.83809 45.5816 9.82152C45.5816 9.67279 45.8685 9.03652 46.0653 8.75555C46.6475 7.89614 47.8364 7.49123 48.7875 7.83002Z" fill="white"></path><path d="M57.8639 5.97924C57.2653 6.07014 56.6094 6.37589 56.1257 6.80558L55.7485 7.14439V6.64031V6.13624H54.6416H53.5347V10.6399V15.1435H54.6416H55.7403L55.7649 12.1934C55.7895 9.3094 55.7977 9.22679 55.9699 8.88798C56.3143 8.25171 57.0358 7.84678 57.8393 7.84678C58.5772 7.8385 59.1184 8.1691 59.4628 8.82186C59.6349 9.14418 59.6432 9.25985 59.6678 12.1438L59.6923 15.1435H60.7501H61.8159V11.9785C61.8159 9.61515 61.7832 8.71448 61.7012 8.40873C61.2502 6.67337 59.7088 5.70654 57.8639 5.97924Z" fill="white"></path></svg>